# xmcd CD database file
#
# Track frame offsets:
#	150
#	25302
#	49305
#	70895
#	91335
#	120375
#	178145
#	206790
#	219977
#	237387
#	251947
#	275567
#	298395
#	315787
#
# Disc length: 4464 seconds
#
# Revision: 2
# Processed by: cddbd v1.5.2PL0 Copyright (c) Steve Scherf et al.
# Submitted via: CDex 1.51
#
DISCID=da116e0e
DTITLE=STEVIE R.VAUGHAN - Still Alive(Live In U.S.A. 1980-89)
DYEAR=1989
DGENRE=Blues Rock
TTITLE0=Scuttle Buttin'
TTITLE1=The Sky Is Cryin'
TTITLE2=Little Wing
TTITLE3=Treat You Right
TTITLE4=Voodoo Child
TTITLE5=Texas Flood  - Stormy Monday Blues
TTITLE6=Matchbox Blues
TTITLE7=Rude Mood
TTITLE8=Pride And Joy
TTITLE9=Testify
TTITLE10=Love Struck Baby
TTITLE11=Say What I
TTITLE12=Say What II
TTITLE13=Change It
EXTD=YEAR: 1989
EXTT0=
EXTT1=
EXTT2=
EXTT3=
EXTT4=
EXTT5=
EXTT6=
EXTT7=
EXTT8=
EXTT9=
EXTT10=
EXTT11=
EXTT12=
EXTT13=
PLAYORDER=
